<?xml version="1.0" encoding="UTF-8"?>
<!DOCTYPE svg PUBLIC "-//W3C//DTD SVG 1.1//EN" "http://www.w3.org/Graphics/SVG/1.1/DTD/svg11.dtd">
<!-- Creator: CorelDRAW -->
<svg xmlns="http://www.w3.org/2000/svg" xml:space="preserve" width="1.70666in" height="1.70666in" style="shape-rendering:geometricPrecision; text-rendering:geometricPrecision; image-rendering:optimizeQuality; fill-rule:evenodd; clip-rule:evenodd"
viewBox="0 0 1.70666 1.70666"
 xmlns:xlink="http://www.w3.org/1999/xlink">
 <defs>
  <style type="text/css">
   <![CDATA[
    .fil0 {fill:black}
   ]]>
  </style>
 </defs>
 <g id="Layer_x0020_1">
  <metadata id="CorelCorpID_0Corel-Layer"/>
  <g id="_489978736">
   <g>
    <path id="_489978856" class="fil0" d="M0.954689 1.05646c-0.0711339,0 -0.128996,-0.0567126 -0.128996,-0.126398 0,-0.0697087 0.0578622,-0.126425 0.128996,-0.126425 0.0711299,0 0.128996,0.0567165 0.128996,0.126425 -2.3622e-005,0.069685 -0.0578898,0.126398 -0.128996,0.126398zm0 -0.216724c-0.0508228,0 -0.0921417,0.0405 -0.0921417,0.0903031 0,0.0497795 0.0413268,0.0902992 0.0921417,0.0902992 0.0507953,0 0.092126,-0.0405197 0.092126,-0.0902992 0,-0.0497835 -0.0413307,-0.0903031 -0.092126,-0.0903031z"/>
   </g>
   <g>
    <path id="_489978688" class="fil0" d="M0.954728 1.16485c-0.0012874,0 -0.00254724,-2.3622e-005 -0.00381496,-3.93701e-005 -0.0617047,-0.000933071 -0.120059,-0.0250512 -0.16437,-0.0679606 -0.044315,-0.0428937 -0.0696378,-0.0998071 -0.071315,-0.160232 -0.00259449,-0.093378 0.0524606,-0.179996 0.138114,-0.21928l0 -0.464543c0,-0.0547677 0.0454488,-0.0993268 0.101346,-0.0993268 0.055874,0 0.101343,0.0445591 0.101343,0.0993268l0 0.464528c0.084374,0.0385118 0.138217,0.120744 0.138217,0.212756 0,0.0634016 -0.0253858,0.122811 -0.0714764,0.167307 -0.0452047,0.043563 -0.104744,0.0674646 -0.168043,0.0674646zm-3.93701e-005 -0.975287c-0.035563,0 -0.0645,0.0283386 -0.0645,0.0632008l0 0.476366c0,0.00735433 -0.00455906,0.0139646 -0.0115236,0.0167362 -0.0780315,0.0309528 -0.128909,0.107209 -0.126606,0.189728 0.00292126,0.104854 0.0923937,0.191449 0.199417,0.193071 0.0547756,0.000669291 0.106421,-0.019437 0.145406,-0.0570827 0.0390276,-0.037622 0.0604961,-0.0879094 0.0604961,-0.141543 0,-0.0813465 -0.0497165,-0.153626 -0.126693,-0.184173 -0.00696457,-0.00277165 -0.0115236,-0.00938189 -0.0115236,-0.0167362l0 -0.476366c0,-0.0348425 -0.0289094,-0.0632008 -0.0644724,-0.0632008z"/>
   </g>
   <g>
    <path id="_489978640" class="fil0" d="M0.954689 0.83974c-0.0101772,0 -0.0184252,-0.00808661 -0.0184252,-0.0180787l0 -0.397331c0,-0.00997638 0.00824803,-0.0180787 0.0184252,-0.0180787 0.0101732,0 0.0184213,0.00808661 0.0184213,0.0180787l0 0.397331c0,0.00999213 -0.00824803,0.0180787 -0.0184213,0.0180787z"/>
   </g>
   <g>
    <path id="_489978424" class="fil0" d="M1.34559 1.70667l-0.661941 0c-0.00491339,0 -0.00961811,-0.0019252 -0.0130827,-0.00535433 -0.00346063,-0.00340945 -0.00538976,-0.0080315 -0.00535039,-0.0128346l0.00147244 -0.234681 -0.13765 0c-0.110752,0 -0.20085,-0.0882913 -0.20085,-0.196858l0 -0.164343 -0.165843 -7.87402e-006c-0.0059685,0 -0.011563,-0.00283465 -0.0150236,-0.00758268 -0.00346457,-0.00474409 -0.00435827,-0.0108661 -0.00240551,-0.0163976l0.12002 -0.339236c-0.00468504,-0.0298189 -0.00705118,-0.0615433 -0.00705118,-0.094378 0,-0.172012 0.0690354,-0.333094 0.194382,-0.453539 0.125181,-0.120323 0.290732,-0.18476 0.46611,-0.181315 0.353508,0.00683465 0.638291,0.294461 0.634815,0.641213 -0.00109843,0.108811 -0.0309016,0.215957 -0.0861732,0.30989 -0.0673819,0.114441 -0.102984,0.243217 -0.102984,0.372382l0 0.364976c0,0.00997638 -0.00827165,0.0180669 -0.0184449,0.0180669zm-0.643417 -0.036122l0.624992 0 0 -0.346913c0,-0.135504 0.037311,-0.27052 0.107917,-0.390437 0.052122,-0.0885394 0.0802047,-0.189606 0.0812441,-0.292193 0.00327559,-0.327035 -0.265299,-0.598303 -0.598685,-0.604732 -0.16539,-0.00322441 -0.321528,0.0575276 -0.439583,0.170996 -0.118217,0.113591 -0.183311,0.265531 -0.183311,0.427752 0,0.0325748 0.00244488,0.0639094 0.00729528,0.0931417 0.000476378,0.00296063 0.000224409,0.00598425 -0.000791339,0.0088189l-0.113035 0.319535 0.158374 0c0.0101732,0 0.0184213,0.00809055 0.0184213,0.0180787l0 0.182409c0,0.0886378 0.0735787,0.160736 0.163996,0.160736l0.156217 0c0.00488583,0 0.00959449,0.00192126 0.0130551,0.00535433 0.00346457,0.00340945 0.00538976,0.0080315 0.00535039,0.0128346l-0.00145669 0.234618z"/>
   </g>
   <g>
    <path id="_489978880" class="fil0" d="M1.21266 1.70667c-0.0101772,0 -0.0184252,-0.00809055 -0.0184252,-0.0180827l0 -0.364976c0,-0.0799449 0.0128307,-0.159543 0.0381811,-0.236551 0.00311024,-0.00950787 0.0134882,-0.0147165 0.0231693,-0.0116535 0.00969685,0.00306693 0.0150236,0.0132402 0.0118976,0.0227244 -0.0241417,0.073437 -0.0363937,0.149291 -0.0363937,0.22548l0 0.364976c7.87402e-006,0.00999213 -0.00825591,0.0180827 -0.0184291,0.0180827z"/>
   </g>
   <g>
    <path id="_489978496" class="fil0" d="M1.56278 0.27985c-0.0609488,0 -0.110575,-0.0485866 -0.110575,-0.108366 0,-0.0597323 0.0496181,-0.108362 0.110575,-0.108362 0.0609567,0 0.110547,0.0486063 0.110547,0.108362 0,0.0597795 -0.0495906,0.108366 -0.110547,0.108366zm0 -0.180587c-0.0406378,0 -0.0737165,0.0324134 -0.0737165,0.0722205 0,0.0398543 0.0330787,0.0722441 0.0737165,0.0722441 0.0406378,0 0.0737165,-0.0324134 0.0737165,-0.0722441 -1.5748e-005,-0.0398071 -0.0330709,-0.0722205 -0.0737165,-0.0722205z"/>
   </g>
   <g>
    <path id="_489978544" class="fil0" d="M0.184429 1.65609c-0.083311,0 -0.151106,-0.0664213 -0.151106,-0.14811 0,-0.0816457 0.0677953,-0.148087 0.151106,-0.148087 0.083315,0 0.15111,0.0664213 0.15111,0.148087 -1.5748e-005,0.081689 -0.0677874,0.14811 -0.15111,0.14811zm0 -0.260063c-0.063,0 -0.114252,0.0502283 -0.114252,0.111953 0,0.0617638 0.051252,0.111972 0.114252,0.111972 0.0630039,0 0.114256,-0.0502244 0.114256,-0.111972 -1.5748e-005,-0.0617402 -0.0512677,-0.111953 -0.114256,-0.111953z"/>
   </g>
  </g>
 </g>
</svg>
